<svg width="22" height="22" viewBox="0 0 22 22" fill="none" xmlns="http://www.w3.org/2000/svg">
<path fill-rule="evenodd" clip-rule="evenodd" d="M21.0001 11C21.0001 16.52 16.5101 21 11.0001 21L10.7204 20.9962C5.32954 20.8478 1.00012 16.4264 1.00012 11C1.00012 5.49 5.48012 1 11.0001 1C16.5101 1 21.0001 5.49 21.0001 11ZM9.02012 7C8.73012 7.3 8.73012 7.77 9.03012 8.06L11.9801 11L9.03012 13.94C8.73012 14.23 8.73012 14.71 9.02012 15C9.32012 15.3 9.79012 15.3 10.0801 15L13.5701 11.53C13.7101 11.39 13.7901 11.2 13.7901 11C13.7901 10.8 13.7101 10.61 13.5701 10.47L10.0801 7C9.94012 6.85 9.75012 6.78 9.56012 6.78C9.36012 6.78 9.17012 6.85 9.02012 7Z" fill="url(#paint0_linear)"/>
<path d="M11.0001 21L10.9984 21.125H11.0001V21ZM10.7204 20.9962L10.7169 21.1211L10.7186 21.1211L10.7204 20.9962ZM9.03012 8.06L9.11837 7.97145L9.117 7.97013L9.03012 8.06ZM9.02012 7L8.93172 6.9116L8.93025 6.91312L9.02012 7ZM11.9801 11L12.0684 11.0885L12.1572 11L12.0684 10.9115L11.9801 11ZM9.03012 13.94L9.11701 14.0299L9.11836 14.0285L9.03012 13.94ZM9.02012 15L9.10851 14.9116L9.10851 14.9116L9.02012 15ZM10.0801 15L9.99197 14.9113L9.99025 14.9131L10.0801 15ZM13.5701 11.53L13.6583 11.6186L13.6585 11.6184L13.5701 11.53ZM13.5701 10.47L13.6585 10.3816L13.6583 10.3814L13.5701 10.47ZM10.0801 7L9.98868 7.08535L9.99199 7.08864L10.0801 7ZM11.0001 21.125C16.5791 21.125 21.1251 16.5891 21.1251 11H20.8751C20.8751 16.4509 16.4412 20.875 11.0001 20.875V21.125ZM10.7186 21.1211L10.9984 21.125L11.0018 20.875L10.7221 20.8712L10.7186 21.1211ZM0.875122 11C0.875122 16.4943 5.25863 20.9709 10.7169 21.1211L10.7238 20.8712C5.40046 20.7247 1.12512 16.3586 1.12512 11H0.875122ZM11.0001 0.875C5.41101 0.875 0.875122 5.42105 0.875122 11H1.12512C1.12512 5.55895 5.54924 1.125 11.0001 1.125V0.875ZM21.1251 11C21.1251 5.42096 16.5792 0.875 11.0001 0.875V1.125C16.4411 1.125 20.8751 5.55904 20.8751 11H21.1251ZM9.117 7.97013C8.86839 7.7298 8.86626 7.33902 9.11 7.08688L8.93025 6.91312C8.59398 7.26098 8.59185 7.8102 8.94324 8.14987L9.117 7.97013ZM12.0684 10.9115L9.11836 7.97146L8.94188 8.14854L11.8919 11.0885L12.0684 10.9115ZM9.11836 14.0285L12.0684 11.0885L11.8919 10.9115L8.94188 13.8515L9.11836 14.0285ZM9.10851 14.9116C8.86758 14.6707 8.86757 14.271 9.117 14.0299L8.94324 13.8501C8.59267 14.189 8.59267 14.7493 8.93173 15.0884L9.10851 14.9116ZM9.99025 14.9131C9.7502 15.1614 9.36054 15.1636 9.10851 14.9116L8.93173 15.0884C9.2797 15.4364 9.83004 15.4386 10.17 15.0869L9.99025 14.9131ZM13.482 11.4414L9.99199 14.9114L10.1683 15.0886L13.6583 11.6186L13.482 11.4414ZM13.6651 11C13.6651 11.1665 13.5986 11.3248 13.4817 11.4416L13.6585 11.6184C13.8217 11.4552 13.9151 11.2335 13.9151 11H13.6651ZM13.4817 10.5584C13.5986 10.6752 13.6651 10.8335 13.6651 11H13.9151C13.9151 10.7665 13.8217 10.5448 13.6585 10.3816L13.4817 10.5584ZM9.99199 7.08864L13.482 10.5586L13.6583 10.3814L10.1683 6.91136L9.99199 7.08864ZM9.56012 6.905C9.7196 6.905 9.87506 6.96349 9.98874 7.08529L10.1715 6.91471C10.0052 6.73651 9.78064 6.655 9.56012 6.655V6.905ZM9.10851 7.08839C9.23324 6.96365 9.3906 6.905 9.56012 6.905V6.655C9.32964 6.655 9.107 6.73635 8.93173 6.91161L9.10851 7.08839Z" fill="#2D2D2D"/>
<defs>
<linearGradient id="paint0_linear" x1="1" y1="1" x2="21" y2="21" gradientUnits="userSpaceOnUse">
<stop stop-color="#20E2D7"/>
<stop offset="1" stop-color="#F9FEA5"/>
</linearGradient>
</defs>
</svg>
