<svg width="22" height="22" viewBox="0 0 22 22" fill="none" xmlns="http://www.w3.org/2000/svg">
<path fill-rule="evenodd" clip-rule="evenodd" d="M1 11C1 5.48 5.49 0.999999 11 0.999999L11.2798 1.00384C16.6706 1.15216 21 5.57356 21 11C21 16.51 16.52 21 11 21C5.49 21 1 16.51 1 11ZM12.98 15C13.27 14.7 13.27 14.23 12.97 13.94L10.02 11L12.97 8.06C13.27 7.77 13.27 7.29 12.98 7C12.68 6.7 12.21 6.7 11.92 7L8.43 10.47C8.29 10.61 8.21 10.8 8.21 11C8.21 11.2 8.29 11.39 8.43 11.53L11.92 15C12.06 15.15 12.25 15.22 12.44 15.22C12.64 15.22 12.83 15.15 12.98 15Z" fill="url(#paint0_linear)"/>
<path d="M11 0.999999L11.0017 0.874999L11 0.874999L11 0.999999ZM11.2798 1.00384L11.2832 0.878878L11.2815 0.878854L11.2798 1.00384ZM12.97 13.94L12.8818 14.0285L12.8831 14.0299L12.97 13.94ZM12.98 15L13.0684 15.0884L13.0699 15.0869L12.98 15ZM10.02 11L9.93176 10.9115L9.84292 11L9.93176 11.0885L10.02 11ZM12.97 8.06L12.8831 7.97011L12.8818 7.97146L12.97 8.06ZM12.98 7L12.8916 7.08839L12.8916 7.08839L12.98 7ZM11.92 7L12.0082 7.08866L12.0099 7.08688L11.92 7ZM8.43 10.47L8.34187 10.3814L8.34161 10.3816L8.43 10.47ZM8.43 11.53L8.34161 11.6184L8.34187 11.6186L8.43 11.53ZM11.92 15L12.0114 14.9147L12.0081 14.9114L11.92 15ZM11 0.874999C5.42105 0.874999 0.875001 5.41088 0.875001 11L1.125 11C1.125 5.54911 5.55896 1.125 11 1.125L11 0.874999ZM11.2815 0.878854L11.0017 0.875011L10.9983 1.12499L11.278 1.12883L11.2815 0.878854ZM21.125 11C21.125 5.50567 16.7415 1.02907 11.2832 0.87889L11.2763 1.1288C16.5997 1.27526 20.875 5.64145 20.875 11L21.125 11ZM11 21.125C16.5891 21.125 21.125 16.579 21.125 11L20.875 11C20.875 16.441 16.4509 20.875 11 20.875L11 21.125ZM0.875001 11C0.875 16.579 5.42096 21.125 11 21.125L11 20.875C5.55904 20.875 1.125 16.441 1.125 11L0.875001 11ZM12.8831 14.0299C13.1317 14.2702 13.1339 14.661 12.8901 14.9131L13.0699 15.0869C13.4061 14.739 13.4083 14.1898 13.0569 13.8501L12.8831 14.0299ZM9.93176 11.0885L12.8818 14.0285L13.0582 13.8515L10.1082 10.9115L9.93176 11.0885ZM12.8818 7.97146L9.93176 10.9115L10.1082 11.0885L13.0582 8.14854L12.8818 7.97146ZM12.8916 7.08839C13.1325 7.32932 13.1326 7.72901 12.8831 7.97013L13.0569 8.14987C13.4074 7.81099 13.4075 7.25068 13.0684 6.91161L12.8916 7.08839ZM12.0099 7.08688C12.2499 6.83855 12.6396 6.83636 12.8916 7.08839L13.0684 6.91161C12.7204 6.56364 12.1701 6.56145 11.8301 6.91312L12.0099 7.08688ZM8.51814 10.5586L12.0081 7.08864L11.8319 6.91136L8.34187 10.3814L8.51814 10.5586ZM8.335 11C8.335 10.8335 8.40156 10.6752 8.51839 10.5584L8.34161 10.3816C8.17844 10.5448 8.085 10.7665 8.085 11L8.335 11ZM8.51839 11.4416C8.40156 11.3248 8.335 11.1665 8.335 11L8.085 11C8.085 11.2335 8.17844 11.4552 8.34161 11.6184L8.51839 11.4416ZM12.0081 14.9114L8.51814 11.4414L8.34187 11.6186L11.8319 15.0886L12.0081 14.9114ZM12.44 15.095C12.2805 15.095 12.1251 15.0365 12.0114 14.9147L11.8286 15.0853C11.9949 15.2635 12.2195 15.345 12.44 15.345L12.44 15.095ZM12.8916 14.9116C12.7669 15.0363 12.6095 15.095 12.44 15.095L12.44 15.345C12.6705 15.345 12.8931 15.2637 13.0684 15.0884L12.8916 14.9116Z" fill="#2D2D2D"/>
<defs>
<linearGradient id="paint0_linear" x1="21.0001" y1="21" x2="1.00012" y2="0.999998" gradientUnits="userSpaceOnUse">
<stop stop-color="#20E2D7"/>
<stop offset="1" stop-color="#F9FEA5"/>
</linearGradient>
</defs>
</svg>
