<svg width="22" height="22" viewBox="0 0 22 22" fill="none" xmlns="http://www.w3.org/2000/svg">
<path fill-rule="evenodd" clip-rule="evenodd" d="M21.0001 11C21.0001 16.52 16.5101 21 11.0001 21L10.7204 20.9962C5.32954 20.8478 1.00012 16.4264 1.00012 11C1.00012 5.49 5.48012 1 11.0001 1C16.5101 1 21.0001 5.49 21.0001 11ZM9.02012 7C8.73012 7.3 8.73012 7.77 9.03012 8.06L11.9801 11L9.03012 13.94C8.73012 14.23 8.73012 14.71 9.02012 15C9.32012 15.3 9.79012 15.3 10.0801 15L13.5701 11.53C13.7101 11.39 13.7901 11.2 13.7901 11C13.7901 10.8 13.7101 10.61 13.5701 10.47L10.0801 7C9.94012 6.85 9.75012 6.78 9.56012 6.78C9.36012 6.78 9.17012 6.85 9.02012 7Z" fill="url(#paint0_linear)"/>
<path d="M11.0001 21L10.9967 21.25H11.0001V21ZM10.7204 20.9962L10.7135 21.2461L10.7169 21.2461L10.7204 20.9962ZM9.03012 8.06L9.20662 7.8829L9.20388 7.88025L9.03012 8.06ZM9.02012 7L8.84332 6.8232L8.84038 6.82624L9.02012 7ZM11.9801 11L12.1566 11.1771L12.3343 11L12.1566 10.8229L11.9801 11ZM9.03012 13.94L9.2039 14.1198L9.2066 14.1171L9.03012 13.94ZM9.02012 15L9.1969 14.8232L9.1969 14.8232L9.02012 15ZM10.0801 15L9.90382 14.8227L9.90037 14.8262L10.0801 15ZM13.5701 11.53L13.7464 11.7073L13.7469 11.7068L13.5701 11.53ZM13.5701 10.47L13.7469 10.2932L13.7464 10.2927L13.5701 10.47ZM10.0801 7L9.89723 7.1707L9.90385 7.17728L10.0801 7ZM11.0001 21.25C16.648 21.25 21.2501 16.6582 21.2501 11H20.7501C20.7501 16.3818 16.3722 20.75 11.0001 20.75V21.25ZM10.7169 21.2461L10.9967 21.25L11.0036 20.75L10.7238 20.7462L10.7169 21.2461ZM0.750122 11C0.750122 16.5622 5.18771 21.094 10.7135 21.2461L10.7272 20.7463C5.47138 20.6016 1.25012 16.2907 1.25012 11H0.750122ZM11.0001 0.75C5.34189 0.75 0.750122 5.35209 0.750122 11H1.25012C1.25012 5.62791 5.61836 1.25 11.0001 1.25V0.75ZM21.2501 11C21.2501 5.35193 16.6482 0.75 11.0001 0.75V1.25C16.3721 1.25 20.7501 5.62807 20.7501 11H21.2501ZM9.20388 7.88025C9.00666 7.68961 9.0024 7.37803 9.19987 7.17376L8.84038 6.82624C8.45784 7.22197 8.45358 7.85039 8.85637 8.23975L9.20388 7.88025ZM12.1566 10.8229L9.2066 7.88292L8.85365 8.23708L11.8036 11.1771L12.1566 10.8229ZM9.2066 14.1171L12.1566 11.1771L11.8036 10.8229L8.85365 13.7629L9.2066 14.1171ZM9.1969 14.8232C9.00504 14.6314 9.00502 14.312 9.20388 14.1197L8.85637 13.7603C8.45523 14.148 8.45521 14.7886 8.84335 15.1768L9.1969 14.8232ZM9.90037 14.8262C9.71028 15.0229 9.40096 15.0273 9.1969 14.8232L8.84335 15.1768C9.23929 15.5727 9.86997 15.5771 10.2599 15.1738L9.90037 14.8262ZM13.3939 11.3527L9.90385 14.8227L10.2564 15.1773L13.7464 11.7073L13.3939 11.3527ZM13.5401 11C13.5401 11.1329 13.487 11.2596 13.3933 11.3532L13.7469 11.7068C13.9332 11.5204 14.0401 11.2671 14.0401 11H13.5401ZM13.3933 10.6468C13.487 10.7404 13.5401 10.8671 13.5401 11H14.0401C14.0401 10.7329 13.9332 10.4796 13.7469 10.2932L13.3933 10.6468ZM9.90385 7.17728L13.3939 10.6473L13.7464 10.2927L10.2564 6.82272L9.90385 7.17728ZM9.56012 7.03C9.68909 7.03 9.81 7.07698 9.89736 7.17058L10.2629 6.82942C10.0702 6.62302 9.81116 6.53 9.56012 6.53V7.03ZM9.1969 7.17678C9.29637 7.07731 9.42108 7.03 9.56012 7.03V6.53C9.29916 6.53 9.04388 6.62269 8.84335 6.82322L9.1969 7.17678Z" fill="#444444"/>
<defs>
<linearGradient id="paint0_linear" x1="1" y1="1" x2="21" y2="21" gradientUnits="userSpaceOnUse">
<stop offset="0.229167" stop-color="#D1FDFF"/>
<stop offset="1" stop-color="#EBC0FD"/>
</linearGradient>
</defs>
</svg>
