<svg width="22" height="22" viewBox="0 0 22 22" fill="none" xmlns="http://www.w3.org/2000/svg">
<path fill-rule="evenodd" clip-rule="evenodd" d="M1 11C1 5.48 5.49 0.999999 11 0.999999L11.2798 1.00384C16.6706 1.15216 21 5.57356 21 11C21 16.51 16.52 21 11 21C5.49 21 1 16.51 1 11ZM12.98 15C13.27 14.7 13.27 14.23 12.97 13.94L10.02 11L12.97 8.06C13.27 7.77 13.27 7.29 12.98 7C12.68 6.7 12.21 6.7 11.92 7L8.43 10.47C8.29 10.61 8.21 10.8 8.21 11C8.21 11.2 8.29 11.39 8.43 11.53L11.92 15C12.06 15.15 12.25 15.22 12.44 15.22C12.64 15.22 12.83 15.15 12.98 15Z" fill="url(#paint0_linear)"/>
<path d="M11 0.999999L11.0034 0.749999L11 0.749999L11 0.999999ZM11.2798 1.00384L11.2866 0.753913L11.2832 0.753866L11.2798 1.00384ZM12.97 13.94L12.7935 14.1171L12.7962 14.1197L12.97 13.94ZM12.98 15L13.1568 15.1768L13.1597 15.1738L12.98 15ZM10.02 11L9.84352 10.8229L9.66585 11L9.84352 11.1771L10.02 11ZM12.97 8.06L12.7962 7.88023L12.7935 7.88292L12.97 8.06ZM12.98 7L12.8032 7.17678L12.8032 7.17678L12.98 7ZM11.92 7L12.0963 7.17732L12.0997 7.17375L11.92 7ZM8.43 10.47L8.25373 10.2927L8.25322 10.2932L8.43 10.47ZM8.43 11.53L8.25322 11.7068L8.25373 11.7073L8.43 11.53ZM11.92 15L12.1029 14.8293L12.0963 14.8227L11.92 15ZM11 0.749999C5.35209 0.749999 0.750001 5.34176 0.750001 11L1.25 11C1.25 5.61823 5.62791 1.25 11 1.25L11 0.749999ZM11.2832 0.753866L11.0034 0.750023L10.9966 1.24998L11.2763 1.25382L11.2832 0.753866ZM21.25 11C21.25 5.43778 16.8124 0.90597 11.2866 0.753937L11.2729 1.25375C16.5287 1.39835 20.75 5.70934 20.75 11L21.25 11ZM11 21.25C16.6582 21.25 21.25 16.6479 21.25 11L20.75 11C20.75 16.3721 16.3818 20.75 11 20.75L11 21.25ZM0.750001 11C0.75 16.6481 5.35193 21.25 11 21.25L11 20.75C5.62807 20.75 1.25 16.3719 1.25 11L0.750001 11ZM12.7962 14.1197C12.9935 14.3104 12.9977 14.622 12.8003 14.8262L13.1597 15.1738C13.5423 14.778 13.5465 14.1496 13.1438 13.7603L12.7962 14.1197ZM9.84352 11.1771L12.7935 14.1171L13.1465 13.7629L10.1965 10.8229L9.84352 11.1771ZM12.7935 7.88292L9.84352 10.8229L10.1965 11.1771L13.1465 8.23708L12.7935 7.88292ZM12.8032 7.17678C12.9951 7.36864 12.9951 7.68802 12.7962 7.88025L13.1438 8.23975C13.5449 7.85198 13.5449 7.21136 13.1568 6.82322L12.8032 7.17678ZM12.0997 7.17375C12.2898 6.9771 12.5992 6.97272 12.8032 7.17678L13.1568 6.82322C12.7608 6.42728 12.1302 6.4229 11.7403 6.82624L12.0997 7.17375ZM8.60627 10.6473L12.0963 7.17728L11.7437 6.82272L8.25373 10.2927L8.60627 10.6473ZM8.46 11C8.46 10.8671 8.51313 10.7404 8.60678 10.6468L8.25322 10.2932C8.06688 10.4796 7.96 10.7329 7.96 11L8.46 11ZM8.60678 11.3532C8.51313 11.2596 8.46 11.1329 8.46 11L7.96 11C7.96 11.2671 8.06688 11.5204 8.25322 11.7068L8.60678 11.3532ZM12.0963 14.8227L8.60627 11.3527L8.25373 11.7073L11.7437 15.1773L12.0963 14.8227ZM12.44 14.97C12.311 14.97 12.1901 14.923 12.1028 14.8294L11.7372 15.1706C11.9299 15.377 12.189 15.47 12.44 15.47L12.44 14.97ZM12.8032 14.8232C12.7038 14.9227 12.579 14.97 12.44 14.97L12.44 15.47C12.701 15.47 12.9562 15.3773 13.1568 15.1768L12.8032 14.8232Z" fill="#444444"/>
<defs>
<linearGradient id="paint0_linear" x1="21.0001" y1="21" x2="1.00012" y2="0.999998" gradientUnits="userSpaceOnUse">
<stop offset="0.229167" stop-color="#D1FDFF"/>
<stop offset="1" stop-color="#EBC0FD"/>
</linearGradient>
</defs>
</svg>
