<svg width="40" height="40" viewBox="0 0 40 40" fill="none" xmlns="http://www.w3.org/2000/svg">
<path fill-rule="evenodd" clip-rule="evenodd" d="M20 1C30.4921 1 39 9.50789 39 20C39 30.4921 30.4921 39 20 39C9.50584 39 1 30.4921 1 20C1 9.50789 9.50584 1 20 1Z" stroke="#404040" stroke-width="2" stroke-linecap="round" stroke-linejoin="round"/>
<path d="M11.0928 17.4042H28.9167" stroke="#404040" stroke-width="2" stroke-linecap="round" stroke-linejoin="round"/>
<path d="M24.442 21.3097H24.4512" stroke="#404040" stroke-width="2" stroke-linecap="round" stroke-linejoin="round"/>
<path d="M20.0045 21.3097H20.0137" stroke="#404040" stroke-width="2" stroke-linecap="round" stroke-linejoin="round"/>
<path d="M15.5577 21.3097H15.567" stroke="#404040" stroke-width="2" stroke-linecap="round" stroke-linejoin="round"/>
<path d="M24.442 25.1962H24.4512" stroke="#404040" stroke-width="2" stroke-linecap="round" stroke-linejoin="round"/>
<path d="M20.0045 25.1962H20.0137" stroke="#404040" stroke-width="2" stroke-linecap="round" stroke-linejoin="round"/>
<path d="M15.5577 25.1962H15.567" stroke="#404040" stroke-width="2" stroke-linecap="round" stroke-linejoin="round"/>
<path d="M24.0438 10V13.2908" stroke="#404040" stroke-width="2" stroke-linecap="round" stroke-linejoin="round"/>
<path d="M15.9656 10V13.2908" stroke="#404040" stroke-width="2" stroke-linecap="round" stroke-linejoin="round"/>
<path fill-rule="evenodd" clip-rule="evenodd" d="M24.2383 11.5792H15.771C12.8343 11.5792 11 13.2152 11 16.2222V25.2719C11 28.3263 12.8343 30 15.771 30H24.229C27.175 30 29 28.3546 29 25.3475V16.2222C29.0092 13.2152 27.1842 11.5792 24.2383 11.5792Z" stroke="#404040" stroke-width="2" stroke-linecap="round" stroke-linejoin="round"/>
</svg>
