<svg width="40" height="40" viewBox="0 0 40 40" fill="none" xmlns="http://www.w3.org/2000/svg">
<path d="M19.6936 9.35828H15.2536C11.602 9.35828 9.3125 11.9435 9.3125 15.6033V25.4762C9.3125 29.1361 11.5913 31.7213 15.2536 31.7213H25.7321C29.3955 31.7213 31.6743 29.1361 31.6743 25.4762V20.693" stroke="#404040" stroke-width="2" stroke-linecap="round" stroke-linejoin="round"/>
<path fill-rule="evenodd" clip-rule="evenodd" d="M16.5297 19.015L25.4039 10.1408C26.5095 9.03641 28.3014 9.03641 29.407 10.1408L30.8522 11.586C31.9577 12.6915 31.9577 14.4847 30.8522 15.589L21.9353 24.506C21.4519 24.9893 20.7964 25.2612 20.1124 25.2612H15.6641L15.7757 20.7725C15.7923 20.1122 16.0619 19.4828 16.5297 19.015Z" stroke="#404040" stroke-width="2" stroke-linecap="round" stroke-linejoin="round"/>
<path d="M24.0552 11.5118L29.4773 16.934" stroke="#404040" stroke-width="2" stroke-linecap="round" stroke-linejoin="round"/>
<path fill-rule="evenodd" clip-rule="evenodd" d="M20 1C30.4921 1 39 9.50789 39 20C39 30.4921 30.4921 39 20 39C9.50584 39 1 30.4921 1 20C1 9.50789 9.50584 1 20 1Z" stroke="#404040" stroke-width="2" stroke-linecap="round" stroke-linejoin="round"/>
</svg>
