<svg width="38" height="38" viewBox="0 0 40 41" fill="none" xmlns="http://www.w3.org/2000/svg">
<path fill-rule="evenodd" clip-rule="evenodd" d="M20 1.29126C30.4921 1.29126 39 9.79916 39 20.2913C39 30.7834 30.4921 39.2913 20 39.2913C9.50584 39.2913 1 30.7834 1 20.2913C1 9.79916 9.50584 1.29126 20 1.29126Z" stroke="#404040" stroke-width="2" stroke-linecap="round" stroke-linejoin="round"/>
<path d="M10.7986 22.7503C9.44092 22.7503 8.33789 21.6473 8.33789 20.2916C8.33789 18.9359 9.44092 17.8308 10.7986 17.8308C12.1564 17.8308 13.2594 18.9359 13.2594 20.2916C13.2594 21.6473 12.1564 22.7503 10.7986 22.7503" fill="#404040"/>
<path d="M19.9998 22.7503C18.6421 22.7503 17.5391 21.6473 17.5391 20.2916C17.5391 18.9359 18.6421 17.8308 19.9998 17.8308C21.3575 17.8308 22.4606 18.9359 22.4606 20.2916C22.4606 21.6473 21.3575 22.7503 19.9998 22.7503" fill="#404040"/>
<path d="M29.2 22.7503C27.8423 22.7503 26.7393 21.6473 26.7393 20.2916C26.7393 18.9359 27.8423 17.8308 29.2 17.8308C30.5577 17.8308 31.6608 18.9359 31.6608 20.2916C31.6608 21.6473 30.5577 22.7503 29.2 22.7503" fill="#404040"/>
</svg>
