<svg width="40" height="40" viewBox="0 0 40 40" fill="none" xmlns="http://www.w3.org/2000/svg">
<path d="M28.9949 17.2896C28.9949 17.2896 28.3501 25.2874 27.976 28.6563C27.7979 30.2654 26.8039 31.2082 25.1759 31.2379C22.0777 31.2937 18.9759 31.2973 15.8789 31.232C14.3126 31.1999 13.3353 30.2452 13.1608 28.6646C12.7843 25.266 12.1431 17.2896 12.1431 17.2896" stroke="#404040" stroke-width="2" stroke-linecap="round" stroke-linejoin="round"/>
<path d="M30.6376 13.4557H10.5" stroke="#404040" stroke-width="2" stroke-linecap="round" stroke-linejoin="round"/>
<path d="M26.7572 13.4557C25.825 13.4557 25.0223 12.7966 24.8394 11.8834L24.5508 10.4394C24.3727 9.77325 23.7694 9.3125 23.0819 9.3125H18.0552C17.3676 9.3125 16.7644 9.77325 16.5863 10.4394L16.2977 11.8834C16.1148 12.7966 15.3121 13.4557 14.3799 13.4557" stroke="#404040" stroke-width="2" stroke-linecap="round" stroke-linejoin="round"/>
<path fill-rule="evenodd" clip-rule="evenodd" d="M20 1C30.4921 1 39 9.50789 39 20C39 30.4921 30.4921 39 20 39C9.50584 39 1 30.4921 1 20C1 9.50789 9.50584 1 20 1Z" stroke="#404040" stroke-width="2" stroke-linecap="round" stroke-linejoin="round"/>
</svg>
